<svg width="25" height="25" viewBox="0 0 25 25" fill="none" xmlns="http://www.w3.org/2000/svg">
<path fill-rule="evenodd" clip-rule="evenodd" d="M12.5 25C19.4036 25 25 19.4036 25 12.5C25 5.59644 19.4036 0 12.5 0C5.59644 0 0 5.59644 0 12.5C0 19.4036 5.59644 25 12.5 25Z" fill="#EF8446"/>
<path fill-rule="evenodd" clip-rule="evenodd" d="M12.4999 13.9424L19.7115 7.69238H5.28839L12.4999 13.9424ZM10.5521 13.2505L12.4999 14.8493L14.4173 13.2505L19.7115 17.7885H5.28839L10.5521 13.2505ZM4.80762 17.3078V8.17315L10.0961 12.7405L4.80762 17.3078ZM20.1922 17.3078V8.17315L14.9038 12.7405L20.1922 17.3078Z" fill="#0A175C"/>
</svg>
