<svg width="25" height="25" viewBox="0 0 25 25" fill="none" xmlns="http://www.w3.org/2000/svg">
<path d="M12.5 25C19.4036 25 25 19.4036 25 12.5C25 5.59644 19.4036 0 12.5 0C5.59644 0 0 5.59644 0 12.5C0 19.4036 5.59644 25 12.5 25Z" fill="#EF8446"/>
<path d="M18.5839 7.19258L16.3525 18.4475C16.3525 18.4475 16.04 19.2287 15.1806 18.8527L10.0292 14.9025L8.15421 13.9992L4.99992 12.9396C4.99992 12.9396 4.51652 12.7687 4.46769 12.3928C4.41886 12.0168 5.01456 11.8166 5.01456 11.8166L17.5536 6.89961C17.5536 6.89473 18.5839 6.44062 18.5839 7.19258Z" fill="#0A165B"/>
<path d="M9.62891 18.3203C9.62891 18.3203 9.47754 18.3057 9.29199 17.7148C9.10645 17.124 8.1543 13.999 8.1543 13.999L15.7275 9.18945C15.7275 9.18945 16.167 8.92578 16.1475 9.18945C16.1475 9.18945 16.2256 9.23828 15.9912 9.45313C15.7568 9.67285 10.0439 14.8096 10.0439 14.8096" fill="#0A1559"/>
<path d="M12.002 16.416L9.96582 18.2764C9.96582 18.2764 9.80469 18.3984 9.63379 18.3203L10.0244 14.8682" fill="#E2702E"/>
</svg>
