<svg width="25" height="25" viewBox="0 0 25 25" fill="none" xmlns="http://www.w3.org/2000/svg">
<path d="M12.5 0C19.4025 0 25 5.5975 25 12.5C25 19.4025 19.4025 25 12.5 25C5.5975 25 0 19.4025 0 12.5C0 5.5975 5.5975 0 12.5 0Z" fill="#EF8446"/>
<path d="M9.60013 18.8505C15.4951 18.8505 18.7226 13.9654 18.7226 9.72785C18.7226 9.59035 18.7226 9.45034 18.7126 9.31284C19.3401 8.85784 19.8826 8.29783 20.3126 7.65282C19.7276 7.91283 19.1076 8.08283 18.4726 8.15783C19.1426 7.75782 19.6426 7.12782 19.8826 6.38531C19.2526 6.75781 18.5651 7.02282 17.8476 7.16282C16.6326 5.8728 14.6026 5.8103 13.3126 7.02282C12.4801 7.80532 12.1276 8.97284 12.3851 10.0854C9.80763 9.95535 7.40513 8.73784 5.77763 6.73531C4.92763 8.20033 5.36013 10.0729 6.77013 11.0154C6.26013 11.0004 5.76013 10.8629 5.31513 10.6154C5.31513 10.6279 5.31513 10.6429 5.31513 10.6554C5.31513 12.1804 6.39013 13.4954 7.88763 13.7979C7.41513 13.9254 6.92013 13.9454 6.44013 13.8529C6.86013 15.1579 8.06263 16.0529 9.43513 16.0804C8.30013 16.9729 6.89763 17.4579 5.45513 17.4554C5.20013 17.4554 4.94513 17.4404 4.69263 17.4079C6.15263 18.3504 7.86013 18.8505 9.60013 18.848" fill="#0A1458"/>
</svg>
