<svg width="124" height="70" viewBox="0 0 124 70" fill="none" xmlns="http://www.w3.org/2000/svg">
<path d="M62.7609 3.86465C59.2756 5.85088 56.426 7.50427 56.426 7.53648C56.426 7.56869 59.2756 9.17914 62.7609 11.1224C66.2352 13.0657 69.1068 14.6761 69.1396 14.6976C69.1725 14.7298 69.2164 18.0044 69.2492 21.9768L69.304 29.2024L75.6609 25.5735L82.0177 21.9554L82.0506 14.6976L82.0725 7.45059L75.7376 3.89686C72.2523 1.95359 69.3369 0.332403 69.2492 0.300194C69.1616 0.267984 66.2352 1.87843 62.7609 3.86465Z" fill="url(#paint0_linear_221_816)"/>
<path d="M48.3867 12.2654L41.9998 15.9247L42.0217 23.1788L42.0546 30.4222L46.7186 33.0298L51.3826 35.6375L53.1604 35.6482H54.9492L54.9711 29.3599L55.004 23.0715L61.3141 19.4766C64.7819 17.5129 67.6242 15.8818 67.6462 15.871C67.6571 15.8496 64.9136 14.3043 61.5556 12.4157C58.1975 10.5378 55.2894 8.90665 55.1138 8.79934L54.7846 8.61692L48.3867 12.2654Z" fill="#F6F8FD"/>
<path d="M75.8059 27.301C72.5052 29.2314 69.6916 30.8599 69.5725 30.9246C69.3669 31.0216 68.4795 30.5471 63.047 27.4628C59.584 25.5 56.7379 23.8931 56.7054 23.8931C56.6297 23.8931 56.6405 33.0168 56.7271 34.4403L56.792 35.6482L69.4102 35.6266L82.0284 35.5943L82.0609 34.3541C82.115 32.5746 81.9635 23.7852 81.8769 23.796C81.8444 23.796 79.1065 25.3813 75.8059 27.301Z" fill="#F6F8FD"/>
<path d="M1.184 52.8V64H3.888V52.8H1.184ZM2.88 55.024H5.072C5.616 55.024 6.04267 55.1467 6.352 55.392C6.66133 55.6373 6.816 55.9947 6.816 56.464C6.816 56.9227 6.66133 57.2747 6.352 57.52C6.04267 57.7653 5.616 57.888 5.072 57.888H2.88V60.112H5.072C6.02133 60.112 6.816 59.968 7.456 59.68C8.10667 59.3813 8.59733 58.96 8.928 58.416C9.25867 57.8613 9.424 57.2107 9.424 56.464C9.424 55.696 9.25867 55.04 8.928 54.496C8.59733 53.952 8.10667 53.536 7.456 53.248C6.816 52.9493 6.02133 52.8 5.072 52.8H2.88V55.024ZM16.1724 64.16C17.111 64.16 17.9057 63.9787 18.5564 63.616C19.2177 63.2533 19.7404 62.7093 20.1244 61.984L17.9644 61.456C17.783 61.776 17.5377 62.016 17.2284 62.176C16.9297 62.336 16.567 62.416 16.1404 62.416C15.767 62.416 15.4524 62.336 15.1964 62.176C14.9404 62.0053 14.7484 61.76 14.6204 61.44C14.4924 61.12 14.4284 60.736 14.4284 60.288C14.439 59.7973 14.503 59.392 14.6204 59.072C14.7484 58.7413 14.935 58.496 15.1804 58.336C15.4257 58.176 15.7297 58.096 16.0924 58.096C16.3804 58.096 16.631 58.16 16.8444 58.288C17.0577 58.416 17.223 58.5973 17.3404 58.832C17.4577 59.0667 17.5164 59.344 17.5164 59.664C17.5164 59.7387 17.495 59.8347 17.4524 59.952C17.4204 60.0587 17.3777 60.1493 17.3244 60.224L17.9004 59.488H13.3564V60.832H20.0764C20.0977 60.7573 20.1084 60.6667 20.1084 60.56C20.1084 60.4427 20.1084 60.3253 20.1084 60.208C20.1084 59.4187 19.9537 58.7467 19.6444 58.192C19.335 57.6373 18.887 57.216 18.3004 56.928C17.7137 56.6293 16.9937 56.48 16.1404 56.48C15.287 56.48 14.5457 56.6347 13.9164 56.944C13.2977 57.2533 12.823 57.696 12.4924 58.272C12.1617 58.848 11.9964 59.5307 11.9964 60.32C11.9964 61.0987 12.167 61.776 12.5084 62.352C12.8497 62.928 13.3297 63.376 13.9484 63.696C14.5777 64.0053 15.319 64.16 16.1724 64.16ZM25.9843 56.64H23.6003V64H25.9843V56.64ZM28.1123 59.136L29.1523 57.072C29.0243 56.88 28.8376 56.7307 28.5923 56.624C28.3469 56.5173 28.0909 56.464 27.8243 56.464C27.4189 56.464 27.0296 56.5973 26.6562 56.864C26.2829 57.1307 25.9789 57.4933 25.7443 57.952C25.5203 58.4107 25.4083 58.9333 25.4083 59.52L25.9843 60.368C25.9843 60.016 26.0323 59.7173 26.1283 59.472C26.2243 59.2267 26.3629 59.04 26.5443 58.912C26.7256 58.784 26.9336 58.72 27.1683 58.72C27.3816 58.72 27.5576 58.7573 27.6963 58.832C27.8456 58.9067 27.9843 59.008 28.1123 59.136ZM31.5224 56.64V58.64H36.5464V56.64H31.5224ZM36.2744 53.84L37.2504 52.064C37.1437 51.9573 36.9997 51.8453 36.8184 51.728C36.637 51.6 36.4184 51.4933 36.1624 51.408C35.9064 51.312 35.5917 51.264 35.2184 51.264C34.6104 51.264 34.0984 51.3707 33.6824 51.584C33.277 51.7973 32.9677 52.1013 32.7544 52.496C32.5517 52.8907 32.4504 53.3653 32.4504 53.92V64H34.7704V54.528C34.7704 54.272 34.8024 54.064 34.8664 53.904C34.9304 53.744 35.0157 53.6267 35.1224 53.552C35.2397 53.4773 35.3784 53.44 35.5384 53.44C35.677 53.44 35.805 53.472 35.9224 53.536C36.0504 53.6 36.1677 53.7013 36.2744 53.84ZM43.4224 64.16C44.361 64.16 45.1557 63.9787 45.8064 63.616C46.4677 63.2533 46.9904 62.7093 47.3744 61.984L45.2144 61.456C45.033 61.776 44.7877 62.016 44.4784 62.176C44.1797 62.336 43.817 62.416 43.3904 62.416C43.017 62.416 42.7024 62.336 42.4464 62.176C42.1904 62.0053 41.9984 61.76 41.8704 61.44C41.7424 61.12 41.6784 60.736 41.6784 60.288C41.689 59.7973 41.753 59.392 41.8704 59.072C41.9984 58.7413 42.185 58.496 42.4304 58.336C42.6757 58.176 42.9797 58.096 43.3424 58.096C43.6304 58.096 43.881 58.16 44.0944 58.288C44.3077 58.416 44.473 58.5973 44.5904 58.832C44.7077 59.0667 44.7664 59.344 44.7664 59.664C44.7664 59.7387 44.745 59.8347 44.7024 59.952C44.6704 60.0587 44.6277 60.1493 44.5744 60.224L45.1504 59.488H40.6064V60.832H47.3264C47.3477 60.7573 47.3584 60.6667 47.3584 60.56C47.3584 60.4427 47.3584 60.3253 47.3584 60.208C47.3584 59.4187 47.2037 58.7467 46.8944 58.192C46.585 57.6373 46.137 57.216 45.5504 56.928C44.9637 56.6293 44.2437 56.48 43.3904 56.48C42.537 56.48 41.7957 56.6347 41.1664 56.944C40.5477 57.2533 40.073 57.696 39.7424 58.272C39.4117 58.848 39.2464 59.5307 39.2464 60.32C39.2464 61.0987 39.417 61.776 39.7584 62.352C40.0997 62.928 40.5797 63.376 41.1984 63.696C41.8277 64.0053 42.569 64.16 43.4224 64.16ZM52.8823 60.32C52.8823 59.9573 52.9676 59.632 53.1383 59.344C53.3089 59.056 53.5436 58.8267 53.8423 58.656C54.1516 58.4853 54.4823 58.4 54.8343 58.4C55.1009 58.4 55.3729 58.4427 55.6503 58.528C55.9276 58.6133 56.1836 58.736 56.4183 58.896C56.6636 59.056 56.8609 59.2533 57.0103 59.488V57.12C56.7543 56.9387 56.4343 56.7893 56.0503 56.672C55.6663 56.544 55.1969 56.48 54.6423 56.48C53.8316 56.48 53.1009 56.64 52.4503 56.96C51.8103 57.28 51.3036 57.728 50.9303 58.304C50.5676 58.8693 50.3863 59.5413 50.3863 60.32C50.3863 61.088 50.5676 61.76 50.9303 62.336C51.3036 62.912 51.8103 63.36 52.4503 63.68C53.1009 64 53.8316 64.16 54.6423 64.16C55.1969 64.16 55.6663 64.1013 56.0503 63.984C56.4343 63.856 56.7543 63.6907 57.0103 63.488V61.136C56.8609 61.3707 56.6689 61.568 56.4343 61.728C56.2103 61.888 55.9596 62.016 55.6823 62.112C55.4156 62.1973 55.1329 62.24 54.8343 62.24C54.4823 62.24 54.1516 62.16 53.8423 62C53.5436 61.84 53.3089 61.6213 53.1383 61.344C52.9676 61.056 52.8823 60.7147 52.8823 60.32ZM59.8925 56.64V58.64H64.8205V56.64H59.8925ZM61.1885 54.08V64H63.5085V54.08H61.1885ZM76.1191 60.064L74.2311 61.424C74.4871 61.9573 74.8445 62.448 75.3031 62.896C75.7618 63.344 76.3005 63.7013 76.9191 63.968C77.5485 64.224 78.2258 64.352 78.9511 64.352C79.4738 64.352 79.9805 64.272 80.4711 64.112C80.9725 63.9627 81.4151 63.7387 81.7991 63.44C82.1938 63.1413 82.5031 62.7733 82.7271 62.336C82.9618 61.888 83.0791 61.3813 83.0791 60.816C83.0791 60.3467 83.0045 59.9307 82.8551 59.568C82.7058 59.2053 82.4978 58.8853 82.2311 58.608C81.9751 58.3307 81.6765 58.096 81.3351 57.904C80.9938 57.7013 80.6258 57.5253 80.2311 57.376C79.7085 57.1947 79.2605 57.024 78.8871 56.864C78.5245 56.704 78.2418 56.528 78.0391 56.336C77.8471 56.144 77.7511 55.92 77.7511 55.664C77.7511 55.4187 77.8525 55.216 78.0551 55.056C78.2578 54.8853 78.5511 54.8 78.9351 54.8C79.2231 54.8 79.4898 54.8587 79.7351 54.976C79.9911 55.0827 80.2205 55.2373 80.4231 55.44C80.6365 55.632 80.8231 55.8613 80.9831 56.128L83.0471 54.976C82.8551 54.592 82.5778 54.2133 82.2151 53.84C81.8525 53.4667 81.3938 53.1573 80.8391 52.912C80.2951 52.6667 79.6498 52.544 78.9031 52.544C78.1778 52.544 77.5165 52.672 76.9191 52.928C76.3325 53.1733 75.8631 53.536 75.5111 54.016C75.1698 54.496 74.9991 55.0667 74.9991 55.728C74.9991 56.2827 75.1005 56.7573 75.3031 57.152C75.5058 57.536 75.7618 57.8667 76.0711 58.144C76.3805 58.4107 76.7058 58.6293 77.0471 58.8C77.3991 58.9707 77.7085 59.104 77.9751 59.2C78.5191 59.4027 78.9565 59.584 79.2871 59.744C79.6178 59.904 79.8578 60.0747 80.0071 60.256C80.1565 60.4267 80.2311 60.656 80.2311 60.944C80.2311 61.2853 80.1031 61.5573 79.8471 61.76C79.5911 61.952 79.2658 62.048 78.8711 62.048C78.4978 62.048 78.1405 61.968 77.7991 61.808C77.4685 61.648 77.1591 61.4187 76.8711 61.12C76.5938 60.8213 76.3431 60.4693 76.1191 60.064ZM85.7831 56.64V58.64H90.7111V56.64H85.7831ZM87.0791 54.08V64H89.3991V54.08H87.0791ZM95.6129 61.696C95.6129 61.5147 95.6555 61.3653 95.7409 61.248C95.8262 61.12 95.9542 61.024 96.1249 60.96C96.2955 60.896 96.5249 60.864 96.8129 60.864C97.1862 60.864 97.5382 60.9173 97.8689 61.024C98.2102 61.12 98.5089 61.264 98.7649 61.456V60.384C98.6369 60.2453 98.4449 60.112 98.1889 59.984C97.9329 59.856 97.6235 59.7493 97.2609 59.664C96.9089 59.5787 96.5089 59.536 96.0609 59.536C95.1435 59.536 94.4342 59.744 93.9329 60.16C93.4315 60.5653 93.1809 61.12 93.1809 61.824C93.1809 62.3253 93.2982 62.752 93.5329 63.104C93.7782 63.456 94.0982 63.7227 94.4929 63.904C94.8982 64.0747 95.3355 64.16 95.8049 64.16C96.2742 64.16 96.7115 64.08 97.1169 63.92C97.5222 63.7493 97.8529 63.504 98.1089 63.184C98.3649 62.8533 98.4929 62.4533 98.4929 61.984L98.2369 61.024C98.2369 61.3653 98.1622 61.6533 98.0129 61.888C97.8635 62.1227 97.6715 62.2987 97.4369 62.416C97.2022 62.5333 96.9462 62.592 96.6689 62.592C96.4769 62.592 96.3009 62.56 96.1409 62.496C95.9809 62.4213 95.8529 62.32 95.7569 62.192C95.6609 62.0533 95.6129 61.888 95.6129 61.696ZM94.5409 58.896C94.6475 58.832 94.8182 58.752 95.0529 58.656C95.2875 58.5493 95.5595 58.4587 95.8689 58.384C96.1889 58.3093 96.5142 58.272 96.8449 58.272C97.0689 58.272 97.2662 58.2933 97.4369 58.336C97.6182 58.3787 97.7675 58.448 97.8849 58.544C98.0022 58.64 98.0875 58.7573 98.1409 58.896C98.2049 59.024 98.2369 59.1787 98.2369 59.36V64H100.557V58.816C100.557 58.304 100.408 57.872 100.109 57.52C99.8102 57.168 99.4049 56.9013 98.8929 56.72C98.3809 56.528 97.7995 56.432 97.1489 56.432C96.4555 56.432 95.8155 56.5227 95.2289 56.704C94.6422 56.8853 94.1409 57.0773 93.7249 57.28L94.5409 58.896ZM104.35 51.52V64H106.67V51.52H104.35ZM109.342 56.64L106.19 59.68L109.71 64H112.558L109.086 59.68L112.238 56.64H109.342ZM119.11 64.16C120.049 64.16 120.843 63.9787 121.494 63.616C122.155 63.2533 122.678 62.7093 123.062 61.984L120.902 61.456C120.721 61.776 120.475 62.016 120.166 62.176C119.867 62.336 119.505 62.416 119.078 62.416C118.705 62.416 118.39 62.336 118.134 62.176C117.878 62.0053 117.686 61.76 117.558 61.44C117.43 61.12 117.366 60.736 117.366 60.288C117.377 59.7973 117.441 59.392 117.558 59.072C117.686 58.7413 117.873 58.496 118.118 58.336C118.363 58.176 118.667 58.096 119.03 58.096C119.318 58.096 119.569 58.16 119.782 58.288C119.995 58.416 120.161 58.5973 120.278 58.832C120.395 59.0667 120.454 59.344 120.454 59.664C120.454 59.7387 120.433 59.8347 120.39 59.952C120.358 60.0587 120.315 60.1493 120.262 60.224L120.838 59.488H116.294V60.832H123.014C123.035 60.7573 123.046 60.6667 123.046 60.56C123.046 60.4427 123.046 60.3253 123.046 60.208C123.046 59.4187 122.891 58.7467 122.582 58.192C122.273 57.6373 121.825 57.216 121.238 56.928C120.651 56.6293 119.931 56.48 119.078 56.48C118.225 56.48 117.483 56.6347 116.854 56.944C116.235 57.2533 115.761 57.696 115.43 58.272C115.099 58.848 114.934 59.5307 114.934 60.32C114.934 61.0987 115.105 61.776 115.446 62.352C115.787 62.928 116.267 63.376 116.886 63.696C117.515 64.0053 118.257 64.16 119.11 64.16Z" fill="#F6F8FD"/>
<rect x="44" y="69" width="36" height="1" rx="0.5" fill="#F6F8FD"/>
<defs>
<linearGradient id="paint0_linear_221_816" x1="78.2942" y1="29.2024" x2="70.6614" y2="7.49666" gradientUnits="userSpaceOnUse">
<stop stop-color="#C8329F"/>
<stop offset="1" stop-color="#EF8446"/>
</linearGradient>
</defs>
</svg>
