<?xml version="1.0" standalone="no"?>
<!DOCTYPE svg PUBLIC "-//W3C//DTD SVG 20010904//EN"
 "http://www.w3.org/TR/2001/REC-SVG-20010904/DTD/svg10.dtd">
<svg version="1.0" xmlns="http://www.w3.org/2000/svg"
 width="736.000000pt" height="736.000000pt" viewBox="0 0 736.000000 736.000000"
 preserveAspectRatio="xMidYMid meet">
<metadata>
Created by potrace 1.14, written by Peter Selinger 2001-2017
</metadata>
<g transform="translate(0.000000,736.000000) scale(0.100000,-0.100000)"
fill="#000000" stroke="none">
<path d="M4480 7327 c-36 -17 -67 -34 -70 -37 -3 -3 -25 -15 -50 -28 -140 -73
-539 -297 -1053 -593 -186 -107 -359 -206 -385 -221 -25 -14 -48 -30 -50 -36
-2 -8 61 -47 228 -140 25 -14 135 -76 245 -137 283 -159 384 -215 430 -240 76
-42 140 -78 170 -95 17 -10 53 -30 80 -45 28 -15 88 -49 135 -75 47 -26 108
-60 135 -75 28 -15 75 -42 105 -59 30 -17 72 -40 92 -51 21 -11 40 -26 43 -33
5 -15 14 -695 19 -1448 2 -231 6 -426 10 -432 4 -7 23 -1 59 20 114 67 153 89
170 95 9 3 17 9 17 14 0 5 5 9 11 9 6 0 49 23 96 50 47 28 89 50 94 50 5 0 9
5 9 10 0 6 5 10 11 10 6 0 49 23 96 50 47 28 87 50 88 50 2 0 26 13 53 29 26
15 70 41 98 56 27 16 78 45 114 65 36 21 101 57 145 82 44 25 130 73 190 108
61 35 128 73 150 85 87 49 260 148 264 151 3 2 5 280 6 617 1 338 5 619 9 625
3 6 3 13 -1 15 -7 5 -9 125 -3 152 1 6 1 15 0 20 -6 31 -4 205 3 205 5 0 5 5
2 10 -4 6 -6 39 -6 73 1 34 1 80 0 102 -2 94 11 81 -188 192 -101 57 -187 103
-192 103 -5 0 -9 5 -9 10 0 6 -5 10 -10 10 -6 0 -45 20 -88 44 -42 23 -104 58
-137 76 -33 18 -73 41 -90 51 -16 10 -51 29 -76 42 -25 14 -63 35 -85 48 -21
12 -64 36 -94 52 -30 17 -167 93 -304 169 -137 76 -252 138 -257 138 -4 0 -9
3 -11 8 -3 6 -144 83 -151 82 -1 -1 -31 -15 -67 -33z"/>
<path d="M2630 6260 c-8 -5 -78 -45 -155 -89 -77 -43 -234 -132 -350 -198
-115 -66 -230 -131 -255 -145 -137 -76 -236 -133 -240 -138 -3 -3 -18 -12 -35
-20 -43 -21 -169 -93 -175 -99 -3 -4 -18 -13 -35 -21 -16 -8 -93 -51 -171 -96
-77 -44 -147 -84 -155 -87 -8 -4 -32 -18 -54 -31 l-40 -24 0 -939 c0 -516 1
-946 4 -955 2 -10 15 -24 30 -31 27 -14 92 -49 221 -122 119 -67 170 -95 240
-133 36 -19 81 -45 100 -57 19 -11 61 -34 92 -50 32 -17 58 -33 58 -37 0 -5 8
-8 19 -8 10 0 24 -7 31 -15 7 -8 16 -15 20 -15 5 0 37 -16 72 -36 34 -20 88
-50 118 -66 30 -17 91 -52 135 -77 75 -43 85 -46 160 -48 119 -3 128 -3 150
-3 45 1 211 2 230 1 23 -1 20 -120 26 1174 1 253 6 468 11 478 5 9 13 17 19
17 5 0 62 31 127 68 64 38 153 88 197 112 44 24 82 46 85 50 3 3 19 12 35 20
17 8 87 48 156 88 70 39 131 72 137 72 6 0 12 4 14 8 2 5 39 28 83 52 44 24
89 48 100 54 11 6 22 13 25 16 4 4 29 18 115 64 11 6 22 13 25 17 3 3 21 13
40 22 19 10 53 28 75 42 22 13 54 31 70 40 17 9 39 21 50 28 23 14 241 137
269 152 25 13 32 35 12 35 -9 0 -16 5 -16 10 0 6 -4 10 -9 10 -5 0 -52 25
-106 55 -53 30 -99 55 -103 55 -3 0 -13 6 -21 14 -9 7 -43 28 -76 45 -33 18
-67 36 -75 41 -57 35 -233 130 -241 130 -5 0 -9 4 -9 9 0 5 -8 11 -17 14 -10
3 -47 22 -83 43 -36 20 -81 45 -100 56 -19 10 -42 23 -50 28 -23 15 -264 149
-397 221 -32 17 -67 37 -78 44 -11 6 -47 27 -80 45 -33 18 -73 41 -90 51 -16
10 -47 27 -67 36 -21 10 -38 21 -38 25 0 10 -11 9 -30 -2z"/>
<path d="M6190 4261 c0 -5 -9 -11 -19 -14 -16 -4 -389 -216 -621 -353 -199
-117 -300 -174 -309 -174 -5 0 -11 -4 -13 -8 -1 -4 -25 -21 -53 -36 -27 -16
-70 -40 -95 -54 -25 -13 -57 -34 -72 -44 -16 -11 -28 -16 -28 -11 0 4 -4 3 -8
-3 -4 -6 -65 -43 -137 -84 -71 -40 -149 -86 -172 -102 -24 -16 -43 -26 -43
-21 0 4 -5 2 -12 -5 -7 -7 -19 -12 -28 -12 -16 0 -258 118 -283 138 -7 5 -39
24 -72 41 -33 18 -67 36 -75 41 -16 10 -190 108 -275 156 -293 164 -349 194
-356 194 -5 0 -9 5 -9 10 0 6 -4 10 -9 10 -5 0 -38 16 -73 36 -34 20 -92 52
-128 71 -36 20 -72 41 -80 48 -8 6 -35 22 -60 34 -25 12 -67 35 -95 51 -101
59 -164 89 -169 81 -5 -7 1 -1337 6 -1468 3 -62 3 -63 33 -64 17 -1 35 0 40 1
24 5 176 3 181 -3 3 -3 16 -2 29 3 13 5 25 6 28 3 3 -3 48 -4 99 -3 51 0 723
3 1493 5 770 2 1407 4 1415 4 13 1 16 17 15 97 0 53 3 98 8 101 4 2 5 9 1 14
-3 6 -5 44 -5 85 1 41 2 82 1 92 -1 60 2 117 6 124 3 4 2 8 -3 8 -4 0 -8 109
-9 243 -1 133 -4 343 -7 467 -3 124 -6 244 -7 268 0 30 -4 42 -15 42 -8 0 -15
-4 -15 -9z"/>
<path d="M4307 2083 c-1 -1 -25 -5 -52 -8 -267 -34 -437 -205 -436 -440 0
-187 96 -328 290 -428 50 -26 91 -44 91 -41 0 4 6 2 13 -3 6 -6 30 -16 52 -23
83 -27 207 -92 240 -126 59 -61 59 -149 0 -208 -49 -49 -149 -65 -240 -39 -94
27 -213 126 -266 223 -22 40 -30 40 -83 1 -172 -126 -206 -153 -206 -162 0 -5
5 -9 10 -9 6 0 10 -5 10 -11 0 -17 60 -100 114 -157 91 -96 268 -194 367 -205
19 -2 39 -6 44 -9 20 -13 231 -1 294 16 199 54 342 186 384 353 15 62 16 175
2 238 -10 43 -47 125 -57 125 -4 0 -8 5 -8 11 0 19 -84 100 -144 138 -71 45
-127 70 -252 116 -50 18 -114 45 -143 60 -55 27 -120 85 -122 107 -7 75 -5 82
22 112 32 37 75 53 139 51 97 -2 174 -44 246 -132 l42 -51 28 17 c16 10 54 31
84 48 124 68 170 95 170 102 0 14 -71 111 -112 151 -100 98 -221 159 -353 176
-51 7 -164 12 -168 7z"/>
<path d="M2407 2042 c-1 -4 -3 -355 -2 -780 1 -626 3 -775 14 -781 7 -5 28 -5
47 -1 19 4 34 5 34 1 0 -3 29 -6 65 -6 36 0 65 3 65 6 0 4 17 3 38 -1 21 -4
47 -5 58 -3 10 2 28 4 39 5 20 0 20 6 20 269 0 148 2 269 5 270 3 1 68 2 145
4 77 2 151 6 165 9 14 3 41 9 60 12 95 15 201 72 272 145 81 83 118 178 123
319 6 170 -40 297 -141 389 -77 71 -166 111 -302 135 -77 14 -699 21 -705 8z
m633 -315 c120 -30 171 -119 145 -254 -9 -51 -73 -108 -137 -124 -53 -12 -257
-20 -259 -10 -3 14 -5 387 -2 392 3 7 225 3 253 -4z"/>
<path d="M1195 162 c-11 -1 -31 -11 -45 -22 -34 -26 -35 -90 -1 -119 l24 -21
2579 0 c2287 0 2582 2 2608 15 38 20 48 57 27 101 -14 28 -24 35 -59 41 -24 4
-47 6 -53 4 -5 -2 -28 -2 -50 -1 -22 0 -47 1 -55 0 -29 -1 -65 1 -85 4 -11 1
-34 0 -52 -5 -18 -4 -35 -3 -38 2 -3 4 -11 6 -19 3 -17 -7 -146 -10 -146 -4 0
3 -31 5 -70 5 -38 0 -70 -3 -70 -6 0 -4 -81 3 -93 9 -1 1 -19 -3 -40 -7 -20
-5 -39 -5 -42 -1 -3 4 -22 4 -42 0 -20 -5 -40 -7 -45 -4 -11 7 -137 9 -143 2
-3 -3 -21 -2 -39 2 -19 4 -39 4 -46 0 -7 -4 -27 -4 -46 0 -20 5 -34 4 -34 -2
0 -5 -4 -6 -10 -3 -12 8 -138 10 -145 3 -3 -3 -21 -2 -39 2 -19 4 -39 4 -46 0
-7 -4 -26 -4 -44 0 -39 8 -43 8 -84 -1 -17 -4 -34 -3 -37 2 -3 4 -11 6 -19 3
-17 -7 -146 -10 -146 -4 0 3 -31 5 -70 5 -38 0 -70 -3 -70 -6 0 -3 -20 -3 -45
1 -55 8 -53 8 -93 -1 -17 -4 -34 -3 -37 1 -3 4 -22 4 -42 0 -20 -5 -40 -7 -45
-4 -11 7 -137 9 -143 2 -3 -3 -21 -2 -39 2 -19 4 -40 4 -47 -1 -7 -4 -17 -5
-22 -2 -5 3 -36 4 -70 3 -34 -1 -66 -1 -72 -1 -68 2 -122 2 -130 1 -5 -1 -14
-2 -20 0 -5 1 -43 1 -85 0 -85 -2 -75 -2 -153 1 -31 1 -59 0 -62 -3 -3 -3 -26
-2 -50 2 -25 4 -48 3 -51 -2 -3 -4 -9 -6 -14 -3 -12 8 -138 10 -145 3 -3 -3
-21 -2 -39 2 -19 4 -39 4 -46 0 -7 -4 -26 -4 -44 0 -39 8 -43 8 -84 -1 -17 -4
-34 -3 -37 2 -3 4 -11 6 -19 3 -17 -7 -146 -10 -146 -4 0 3 -31 5 -70 5 -38 0
-70 -3 -70 -6 0 -3 -20 -3 -45 1 -55 8 -53 8 -93 -1 -17 -4 -34 -3 -37 1 -3 4
-22 4 -42 0 -20 -5 -40 -7 -45 -4 -11 7 -137 9 -143 2 -3 -3 -21 -2 -39 2 -19
4 -40 4 -47 -1 -7 -4 -17 -5 -22 -2 -5 3 -36 4 -70 3 -34 -1 -66 -1 -72 -1
-68 2 -122 2 -130 1 -5 -1 -14 -2 -20 0 -5 1 -43 1 -85 0 -85 -2 -75 -2 -153
1 -31 1 -59 0 -62 -3 -3 -3 -26 -2 -50 2 -25 4 -48 4 -50 0 -3 -5 -20 -5 -37
-1 -18 4 -42 5 -53 3z"/>
</g>
</svg>
